<svg width="640" height="480" viewBox="0 0 640 480" fill="none" xmlns="http://www.w3.org/2000/svg">
  <rect width="640" height="480" rx="12" fill="#FFFFFF" />
  
  <!-- Header -->
  <rect width="640" height="64" fill="#F3F4F6" />
  <circle cx="36" cy="32" r="20" fill="#3B82F6" />
  <rect x="72" y="24" width="120" height="16" rx="4" fill="#D1D5DB" />
  <rect x="500" y="24" width="104" height="16" rx="8" fill="#D1D5DB" />
  
  <!-- Messages -->
  <!-- User Message 1 -->
  <rect x="320" y="96" width="280" height="64" rx="16" fill="#EFF6FF" />
  <rect x="336" y="112" width="248" height="8" rx="4" fill="#93C5FD" />
  <rect x="336" y="128" width="200" height="8" rx="4" fill="#93C5FD" />
  
  <!-- Bot Message 1 -->
  <rect x="40" y="176" width="280" height="80" rx="16" fill="#F3F4F6" />
  <rect x="56" y="192" width="248" height="8" rx="4" fill="#D1D5DB" />
  <rect x="56" y="208" width="248" height="8" rx="4" fill="#D1D5DB" />
  <rect x="56" y="224" width="200" height="8" rx="4" fill="#D1D5DB" />
  
  <!-- User Message 2 -->
  <rect x="320" y="272" width="280" height="48" rx="16" fill="#EFF6FF" />
  <rect x="336" y="288" width="248" height="8" rx="4" fill="#93C5FD" />
  
  <!-- Bot Message 2 -->
  <rect x="40" y="336" width="280" height="64" rx="16" fill="#F3F4F6" />
  <rect x="56" y="352" width="248" height="8" rx="4" fill="#D1D5DB" />
  <rect x="56" y="368" width="200" height="8" rx="4" fill="#D1D5DB" />
  
  <!-- Input Field -->
  <rect x="40" y="416" width="560" height="48" rx="24" fill="#F9FAFB" stroke="#E5E7EB" stroke-width="2" />
  <rect x="72" y="436" width="160" height="8" rx="4" fill="#D1D5DB" />
  <circle cx="600" cy="440" r="16" fill="#3B82F6" />
</svg>
